<svg xmlns="http://www.w3.org/2000/svg" width="48" height="48" viewBox="0 0 48 48" fill="none">
<path d="M23.4044 0H6.69075C2.99555 0 0 2.98608 0 6.6696V23.3304C0 27.0139 2.99555 30 6.69075 30H23.4044C27.0996 30 30.0952 27.0139 30.0952 23.3304V6.6696C30.0952 2.98608 27.0996 0 23.4044 0Z" fill="url(#paint0_linear_11216_1161)"/>
<path d="M7.6251 11.5862C13.117 12.2584 17.0353 17.2277 16.3962 22.7022C16.3962 22.7197 16.3962 22.7417 16.3918 22.7593C16.3918 22.7769 16.3918 22.79 16.383 22.8076C16.2684 23.7127 16.0348 24.5739 15.7042 25.3779C13.5181 25.1099 11.5831 24.1653 10.0845 22.7725C10.1947 22.5045 10.2917 22.2277 10.3754 21.9465C10.5429 21.4016 10.6619 20.8305 10.7369 20.2461C10.825 19.5343 10.8338 18.8313 10.7721 18.1459C10.5518 15.6328 9.38374 13.3393 7.59425 11.6784C7.60306 11.6477 7.61628 11.6213 7.62951 11.5906L7.6251 11.5862Z" fill="url(#paint1_linear_11216_1161)"/>
<path d="M22.4699 18.414C16.978 17.7418 13.0597 12.7725 13.6988 7.298C13.6988 7.28043 13.6988 7.25846 13.7032 7.24088C13.7032 7.22331 13.7032 7.21013 13.712 7.19255C13.8266 6.28746 14.0602 5.4263 14.3908 4.62225C16.5769 4.89027 18.5119 5.83491 20.0105 7.2277C19.9003 7.49572 19.8033 7.77252 19.7196 8.05371C19.5521 8.59853 19.4331 9.1697 19.3581 9.75406C19.27 10.4658 19.2612 11.1688 19.3229 11.8542C19.5433 14.3674 20.7113 16.6609 22.5008 18.3217C22.492 18.3525 22.4787 18.3788 22.4655 18.4096L22.4699 18.414Z" fill="url(#paint2_linear_11216_1161)"/>
<path d="M22.4699 18.414C16.978 17.7418 13.0597 12.7726 13.6988 7.29803C14.9197 9.42018 16.9031 11.0766 19.3229 11.8587C19.9267 12.0564 20.5614 12.197 21.2138 12.2761C21.8088 12.3464 22.3994 12.3683 22.9768 12.3376C23.3691 12.3156 23.7525 12.2717 24.136 12.2102C25.1409 14.0028 25.6037 16.1161 25.3393 18.313C25.3393 18.3305 25.3393 18.3437 25.3305 18.3613C24.4533 18.5063 23.5454 18.5327 22.6198 18.436C22.5581 18.4272 22.5096 18.4228 22.4699 18.4184V18.414Z" fill="white"/>
<path d="M7.6251 11.5862C13.117 12.2584 17.0353 17.2277 16.3962 22.7022C15.1753 20.5801 13.1919 18.9237 10.7721 18.1416C10.1683 17.9439 9.53359 17.8033 8.88127 17.7242C8.28624 17.6539 7.69562 17.6319 7.11822 17.6627C6.72594 17.6846 6.34248 17.7286 5.95902 17.7901C4.95408 15.9975 4.49129 13.8841 4.75574 11.6873C4.75574 11.6697 4.75574 11.6565 4.76456 11.6389C5.64167 11.494 6.54964 11.4676 7.47524 11.5642C7.52813 11.5686 7.5722 11.573 7.6251 11.5818V11.5862Z" fill="white"/>
<defs>
<linearGradient id="paint0_linear_11216_1161" x1="30.5668" y1="-1.31371" x2="3.8271" y2="26.9695" gradientUnits="userSpaceOnUse">
<stop offset="0.01" stop-color="#E9913E"/>
<stop offset="1" stop-color="#F20000"/>
</linearGradient>
<linearGradient id="paint1_linear_11216_1161" x1="7.5678" y1="26.1424" x2="14.0063" y2="14.0209" gradientUnits="userSpaceOnUse">
<stop offset="0.19" stop-color="white"/>
<stop offset="0.4" stop-color="#FDFCFC" stop-opacity="0.99"/>
<stop offset="0.51" stop-color="#F9F4F5" stop-opacity="0.97"/>
<stop offset="0.6" stop-color="#F3E7E9" stop-opacity="0.93"/>
<stop offset="0.67" stop-color="#E9D4D7" stop-opacity="0.88"/>
<stop offset="0.74" stop-color="#DDBBC0" stop-opacity="0.81"/>
<stop offset="0.81" stop-color="#CE9CA4" stop-opacity="0.73"/>
<stop offset="0.87" stop-color="#BC7883" stop-opacity="0.63"/>
<stop offset="0.92" stop-color="#A84E5C" stop-opacity="0.51"/>
<stop offset="0.97" stop-color="#911F31" stop-opacity="0.38"/>
<stop offset="1" stop-color="#830317" stop-opacity="0.3"/>
</linearGradient>
<linearGradient id="paint2_linear_11216_1161" x1="24.709" y1="-4.96913" x2="15.0088" y2="20.662" gradientUnits="userSpaceOnUse">
<stop offset="0.19" stop-color="white"/>
<stop offset="0.4" stop-color="#FDFCFC" stop-opacity="0.99"/>
<stop offset="0.51" stop-color="#F9F4F5" stop-opacity="0.97"/>
<stop offset="0.6" stop-color="#F3E7E9" stop-opacity="0.93"/>
<stop offset="0.67" stop-color="#E9D4D7" stop-opacity="0.88"/>
<stop offset="0.74" stop-color="#DDBBC0" stop-opacity="0.81"/>
<stop offset="0.81" stop-color="#CE9CA4" stop-opacity="0.73"/>
<stop offset="0.87" stop-color="#BC7883" stop-opacity="0.63"/>
<stop offset="0.92" stop-color="#A84E5C" stop-opacity="0.51"/>
<stop offset="0.97" stop-color="#911F31" stop-opacity="0.38"/>
<stop offset="1" stop-color="#830317" stop-opacity="0.3"/>
</linearGradient>
</defs>
</svg>